# xmcd
#
# Track frame offsets: 
#        150
#        20460
#        39090
#        54563
#        69743
#        83686
#        101746
#        123736
#        141856
#        158994
#        174692
#        190592
#        211345
#        227448
#        242351
#        256444
#        268422
#        285852
#        298760
#        316243
#
# Disc length: 4483 seconds
#
# Revision: 0
# Processed by: cddbd v1.5.2PL0 Copyright (c) Steve Scherf et al.
# Submitted via: ExactAudioCopy v1.3
#
DISCID=1d118114
DTITLE=Various Artist - TSP Country and Americana Vol 179
DYEAR=2018
DGENRE=Country
TTITLE0=The Williams Brother's Band - Queen Of The Honky Tonk
TTITLE1=Brandon Michael - Waits For You
TTITLE2=Steve Roberson - The Drinker's Hall Of Fame
TTITLE3=Anna-Maria Falcone - Hangin' On
TTITLE4=The DSP Band - That's How The Money Gets Around
TTITLE5=Mark Rogers - No Bigger Fool
TTITLE6=Vanessa Delaine - The Storm
TTITLE7=Clark Ford - I'll Be Your Rock
TTITLE8=Brandon Michael - Train Wreck
TTITLE9=Steve Roberson - It's A Good World
TTITLE10=Phillip Sanders - With Her I Am
TTITLE11=Mark Rogers - You Can Lead Me On
TTITLE12=Anna-Maria Falcone - Forgiven And Free
TTITLE13=Miss Jeanie - All The Lights Are On In Heaven
TTITLE14=Slim Andrews - Detroit City
TTITLE15=Flint Westrock - Theres No Partners In Hell
TTITLE16=Peter Lawlor - Flying South
TTITLE17=Jim Straight - Jimmy Straight
TTITLE18=Howard Delnick - Oh California
TTITLE19=Flink Westrock - Oh Death
EXTD=
EXTT0=
EXTT1=
EXTT2=
EXTT3=
EXTT4=
EXTT5=
EXTT6=
EXTT7=
EXTT8=
EXTT9=
EXTT10=
EXTT11=
EXTT12=
EXTT13=
EXTT14=
EXTT15=
EXTT16=
EXTT17=
EXTT18=
EXTT19=
PLAYORDER=
